HIERARCHY
ROOT Hips
{
    OFFSET 0.000000 0.000000 0.000000
    CHANNELS 6 Xposition Yposition Zposition Zrotation Xrotation Yrotation
    JOINT Spine
    {
        OFFSET -0.000000 14.517291 0.000000
        CHANNELS 3 Zrotation Xrotation Yrotation
        JOINT Spine1
        {
            OFFSET -0.000000 37.558300 0.000000
            CHANNELS 3 Zrotation Xrotation Yrotation
            JOINT Neck
            {
                OFFSET -0.000000 37.404057 3.400369
                CHANNELS 3 Zrotation Xrotation Yrotation
                JOINT Head
                {
                    OFFSET -0.000000 24.785618 -3.540803
                    CHANNELS 3 Zrotation Xrotation Yrotation
                    End Site
                    {
                        OFFSET -0.000000 35.408028 0.000000
                    }
                }
            }
            JOINT LeftShoulder
            {
                OFFSET 6.992933 33.973492 -0.192664
                CHANNELS 3 Zrotation Xrotation Yrotation
                JOINT LeftArm
                {
                    OFFSET 21.527611 0.000000 0.000000
                    CHANNELS 3 Zrotation Xrotation Yrotation
                    JOINT LeftForeArm
                    {
                        OFFSET 56.353916 0.000000 0.000000
                        CHANNELS 3 Zrotation Xrotation Yrotation
                        JOINT LeftHand
                        {
                            OFFSET 47.774071 0.000000 0.000000
                            CHANNELS 3 Zrotation Xrotation Yrotation
                            End Site
                            {
                                OFFSET 26.556021 0.000000 0.000000
                            }
                        }
                    }
                }
            }
            JOINT RightShoulder
            {
                OFFSET -7.065357 33.973492 -0.192664
                CHANNELS 3 Zrotation Xrotation Yrotation
                JOINT RightArm
                {
                    OFFSET -21.527611 0.000000 0.000000
                    CHANNELS 3 Zrotation Xrotation Yrotation
                    JOINT RightForeArm
                    {
                        OFFSET -56.353916 0.000000 0.000000
                        CHANNELS 3 Zrotation Xrotation Yrotation
                        JOINT RightHand
                        {
                            OFFSET -47.774071 0.000000 0.000000
                            CHANNELS 3 Zrotation Xrotation Yrotation
                            End Site
                            {
                                OFFSET -26.556021 0.000000 0.000000
                            }
                        }
                    }
                }
            }
        }
    }
    JOINT LeftUpLeg
    {
        OFFSET 17.704014 0.000000 0.000000
        CHANNELS 3 Zrotation Xrotation Yrotation
        JOINT LeftLeg
        {
            OFFSET -0.000000 -81.181816 0.000000
            CHANNELS 3 Zrotation Xrotation Yrotation
            JOINT LeftFoot
            {
                OFFSET -0.000000 -62.821102 0.000000
                CHANNELS 3 Zrotation Xrotation Yrotation
                JOINT LeftToeBase
                {
                    OFFSET -0.000000 -11.507608 26.556021
                    CHANNELS 3 Zrotation Xrotation Yrotation
                    End Site
                    {
                        OFFSET -0.000000 0.000000 7.081605
                    }
                }
            }
        }
    }
    JOINT RightUpLeg
    {
        OFFSET -17.704014 0.000000 0.000000
        CHANNELS 3 Zrotation Xrotation Yrotation
        JOINT RightLeg
        {
            OFFSET -0.000000 -81.181816 0.000000
            CHANNELS 3 Zrotation Xrotation Yrotation
            JOINT RightFoot
            {
                OFFSET -0.000000 -62.821102 0.000000
                CHANNELS 3 Zrotation Xrotation Yrotation
                JOINT RightToeBase
                {
                    OFFSET -0.000000 -11.507608 26.556021
                    CHANNELS 3 Zrotation Xrotation Yrotation
                    End Site
                    {
                        OFFSET -0.000000 0.000000 7.081605
                    }
                }
            }
        }
    }
}
MOTION
Frames:    12
Frame Time:    0.008333
-29.507387    151.586121    -34.326595    0.314204    4.012252    24.293133    -3.138561    4.152077    8.808074    -2.338227    -2.239981    2.853577    -3.498957    5.621560    -14.524478    14.491307    -10.751175    -11.418089    1.384972    3.866284    -7.878383    -34.803699    12.642220    -60.250011    -5.236325    -28.986574    -124.966896    -7.075963    -36.735718    -13.623546    -1.142685    12.151671    1.307379    37.289349    18.716843    54.725029    -3.970108    -19.246662    87.729759    22.842390    -10.658267    24.738695    -3.254616    -35.722370    -29.741211    -10.799340    22.112944    -24.556849    -11.107154    2.125142    31.784298    0.000000    0.000000    0.000000    3.637664    9.342103    -20.750027    2.174985    22.489557    -3.038573    0.190055    -30.452366    -8.372717    0.000000    0.000000    0.000000    
-29.509073    151.587158    -34.322563    0.314067    4.021115    24.294111    -3.137252    4.143440    8.805739    -2.344869    -2.232655    2.852905    -3.505009    5.637360    -14.521978    14.506668    -10.790484    -11.406951    1.387333    3.875193    -7.878056    -34.793533    12.645552    -60.264225    -5.222723    -29.009394    -124.970016    -7.128462    -36.729397    -13.654893    -1.144680    12.150216    1.314831    37.305176    18.717659    54.710175    -3.969371    -19.256966    87.749870    22.858171    -10.659949    24.762207    -3.256019    -35.726486    -29.757408    -10.802642    22.104326    -24.548065    -11.101820    2.124161    31.785866    0.000000    0.000000    0.000000    3.635222    9.338122    -20.735443    2.191523    22.482784    -3.056187    0.183761    -30.455536    -8.391752    0.000000    0.000000    0.000000    
-29.513338    151.589172    -34.319511    0.311846    4.027260    24.287516    -3.138944    4.141038    8.806230    -2.348022    -2.228566    2.853085    -3.496683    5.628247    -14.517241    14.499043    -10.802598    -11.402802    1.391786    3.874820    -7.879276    -34.798752    12.647105    -60.269508    -5.214609    -29.011122    -124.983902    -7.119215    -36.722134    -13.648146    -1.140773    12.150295    1.305659    37.299454    18.729082    54.723347    -3.983392    -19.267569    87.753738    22.836859    -10.663347    24.757431    -3.250031    -35.731506    -29.765890    -10.808843    22.101133    -24.524088    -11.100243    2.120188    31.778893    0.000000    0.000000    0.000000    3.636701    9.327265    -20.711243    2.193699    22.492094    -3.033810    0.171365    -30.448498    -8.431574    0.000000    0.000000    0.000000    
-29.514780    151.592987    -34.318287    0.310543    4.035848    24.276279    -3.136092    4.137781    8.809102    -2.355522    -2.232439    2.853883    -3.502653    5.647718    -14.512734    14.513577    -10.835421    -11.390663    1.386730    3.890619    -7.879435    -34.785973    12.641651    -60.281723    -5.205113    -29.023872    -124.989784    -7.141653    -36.716591    -13.675721    -1.139862    12.151827    1.309079    37.294518    18.739588    54.725395    -3.991931    -19.280132    87.757614    22.822071    -10.674279    24.743185    -3.242913    -35.736649    -29.769266    -10.816389    22.092695    -24.504192    -11.094725    2.130257    31.775875    0.000000    0.000000    0.000000    3.633696    9.318422    -20.692085    2.204027    22.486189    -3.063459    0.157710    -30.441206    -8.437073    0.000000    0.000000    0.000000    
-29.517483    151.598831    -34.321396    0.312696    4.049802    24.266615    -3.143371    4.133845    8.810214    -2.358090    -2.230127    2.854181    -3.521184    5.634034    -14.505671    14.541337    -10.834358    -11.374646    1.384034    3.888973    -7.874935    -34.781898    12.645445    -60.293598    -5.197295    -29.042021    -125.003334    -7.175313    -36.718967    -13.700163    -1.145421    12.144384    1.317001    37.302113    18.742945    54.715199    -3.977996    -19.291218    87.775154    22.820604    -10.693295    24.767160    -3.242409    -35.743164    -29.777216    -10.817088    22.079514    -24.511562    -11.114287    2.124165    31.803402    0.000000    0.000000    0.000000    3.623113    9.298956    -20.681059    2.204203    22.499773    -3.067118    0.159600    -30.438997    -8.440848    0.000000    0.000000    0.000000    
-29.517290    151.604416    -34.321964    0.315185    4.058954    24.256268    -3.136055    4.135206    8.806045    -2.380148    -2.231056    2.852438    -3.502059    5.627093    -14.498465    14.517106    -10.846665    -11.372903    1.383952    3.886834    -7.864022    -34.772758    12.645894    -60.304405    -5.196283    -29.049774    -125.018120    -7.171369    -36.727390    -13.705665    -1.146204    12.150002    1.323587    37.304806    18.748207    54.723610    -3.986893    -19.303728    87.774078    22.833570    -10.695036    24.766632    -3.241396    -35.743481    -29.780653    -10.814037    22.064833    -24.515516    -11.114641    2.135949    31.809168    0.000000    0.000000    0.000000    3.614385    9.286434    -20.676973    2.196120    22.509836    -3.053633    0.169229    -30.437174    -8.427642    0.000000    0.000000    0.000000    
-29.516327    151.611954    -34.322460    0.318872    4.066139    24.236818    -3.144817    4.138928    8.808028    -2.375067    -2.237494    2.852935    -3.512975    5.632675    -14.493563    14.526207    -10.861399    -11.362923    1.375416    3.895247    -7.855525    -34.771957    12.637786    -60.314491    -5.182856    -29.057617    -125.024490    -7.178524    -36.714073    -13.707295    -1.150740    12.143429    1.333259    37.306538    18.745726    54.716629    -3.963881    -19.294043    87.786957    22.831221    -10.708625    24.755917    -3.235135    -35.739498    -29.782154    -10.814775    22.049156    -24.503525    -11.118434    2.135124    31.822937    0.000000    0.000000    0.000000    3.601599    9.273304    -20.657539    2.208192    22.521030    -3.085735    0.161323    -30.428616    -8.424500    0.000000    0.000000    0.000000    
-29.515982    151.617203    -34.321701    0.324978    4.070250    24.219240    -3.153161    4.141886    8.810930    -2.371973    -2.241580    2.853733    -3.489161    5.628060    -14.479400    14.482708    -10.871412    -11.359223    1.371167    3.902149    -7.858406    -34.780449    12.624013    -60.316483    -5.190608    -29.053474    -125.033081    -7.184882    -36.722633    -13.716846    -1.158505    12.150393    1.340485    37.297829    18.748446    54.726929    -3.972799    -19.312191    87.774483    22.843712    -10.717577    24.753477    -3.230170    -35.732067    -29.780008    -10.813891    22.036530    -24.489609    -11.118746    2.138350    31.824156    0.000000    0.000000    0.000000    3.590138    9.264812    -20.649323    2.196251    22.532570    -3.075498    0.184989    -30.423326    -8.412766    0.000000    0.000000    0.000000    
-29.513481    151.621277    -34.322975    0.333327    4.077510    24.202492    -3.149726    4.142822    8.806883    -2.390028    -2.234511    2.852220    -3.501286    5.625101    -14.478900    14.498953    -10.875101    -11.353142    1.367779    3.897646    -7.844932    -34.767262    12.623466    -60.328598    -5.185193    -29.073277    -125.032822    -7.180292    -36.732018    -13.732438    -1.163265    12.147816    1.345230    37.291443    18.748993    54.744514    -3.974731    -19.312502    87.762283    22.847311    -10.714977    24.758696    -3.235470    -35.726765    -29.773779    -10.802655    22.025553    -24.488163    -11.121820    2.141152    31.832481    0.000000    0.000000    0.000000    3.570964    9.260746    -20.644499    2.207759    22.537167    -3.084090    0.173181    -30.424601    -8.401177    0.000000    0.000000    0.000000    
-29.511679    151.624619    -34.322617    0.344358    4.078683    24.182329    -3.156370    4.151232    8.812174    -2.397118    -2.238645    2.853617    -3.496372    5.632409    -14.471910    14.496868    -10.886536    -11.345621    1.374406    3.899914    -7.850101    -34.782013    12.608166    -60.332520    -5.189971    -29.063755    -125.030876    -7.149055    -36.734444    -13.710809    -1.167075    12.153814    1.349178    37.280041    18.749884    54.759560    -4.000562    -19.323097    87.736176    22.825191    -10.713433    24.733307    -3.232012    -35.714149    -29.769346    -10.801735    22.008230    -24.482584    -11.126682    2.138258    31.838087    0.000000    0.000000    0.000000    3.553090    9.263699    -20.636164    2.207567    22.537922    -3.081720    0.168737    -30.419731    -8.385641    0.000000    0.000000    0.000000    
-29.512877    151.626724    -34.325237    0.350435    4.084448    24.169256    -3.161190    4.149919    8.810979    -2.392189    -2.234809    2.853316    -3.521919    5.635199    -14.472775    14.512553    -10.881236    -11.341079    1.359018    3.898941    -7.849917    -34.779755    12.596272    -60.332916    -5.195875    -29.067936    -125.025734    -7.169793    -36.743767    -13.726150    -1.180850    12.146772    1.350614    37.270493    18.757614    54.770451    -3.996931    -19.340036    87.723396    22.839890    -10.729689    24.744717    -3.235798    -35.712448    -29.762394    -10.790669    22.003347    -24.478220    -11.121623    2.150364    31.826338    0.000000    0.000000    0.000000    3.541029    9.258590    -20.647167    2.200044    22.542570    -3.063861    0.187226    -30.429655    -8.376084    0.000000    0.000000    0.000000    
-29.511341    151.626831    -34.324051    0.359404    4.084208    24.153179    -3.160566    4.150327    8.811854    -2.404771    -2.222270    2.853649    -3.509515    5.617529    -14.468670    14.490144    -10.870472    -11.343991    1.370731    3.888763    -7.850097    -34.781647    12.606418    -60.341125    -5.183714    -29.093575    -125.017868    -7.148029    -36.750301    -13.701694    -1.175398    12.135921    1.359114    37.258411    18.755013    54.770546    -4.003812    -19.347824    87.707794    22.844162    -10.726877    24.766008    -3.232500    -35.705238    -29.755966    -10.795434    21.997101    -24.465092    -11.134491    2.140306    31.835432    0.000000    0.000000    0.000000    3.528401    9.259326    -20.658365    2.197663    22.551414    -3.058525    0.170839    -30.429892    -8.377892    0.000000    0.000000    0.000000    
